# xmcd
#
# Track frame offsets:
#	150
#	18314
#	34274
#	51600
#	70503
#	85209
#	105716
#	121765
#	136213
#	150466
#	164297
#	180299
#	196339
#	208421
#	222297
#	241140
#	255124
#	269360
#
# Disc length: 3798 seconds
#
# Revision: 2
# Processed by: cddbd v1.5.2PL0 Copyright (c) Steve Scherf et al.
# Submitted via: audiograbber 1.83.01
#
DISCID=f10ed412
DTITLE=Various Artist - Country Radio December 2001
DYEAR=2001
DGENRE=Country
TTITLE0=George Strait - Run
TTITLE1=Tammy Cochran - I Cry
TTITLE2=Kevin Sharp - Beautiful People
TTITLE3=Mark McGuinn - She Doesn't Dance
TTITLE4=Lee Ann Womack - Does My Ring Burn Your Finger
TTITLE5=David Ball - Riding With Private Malone
TTITLE6=Patty Loveless - Travis Tritt - Out Of Control Raging Fire
TTITLE7=Paul Brandt - Canadian Man
TTITLE8=Ronnie McDowell - Don't Mess With America
TTITLE9=George Jones - Garth Brooks - Beer Run
TTITLE10=Hal Ketchum - Dolly Parton - Two Of The Lucky Ones
TTITLE11=Kenny Rogers - Hameland
TTITLE12=Alan Jackson - It's Alright To Be A Redneck
TTITLE13=Cyndi Thompson - I Always Liked The Best
TTITLE14=Deryl Dodd - One Rode In Vegas
TTITLE15=Tractors, The - Fast Girl
TTITLE16=Great Divide, The - Wild Horses
TTITLE17=Perfect Stranger - Hits, The
EXTD=
EXTT0=
EXTT1=
EXTT2=
EXTT3=
EXTT4=
EXTT5=
EXTT6=
EXTT7=
EXTT8=
EXTT9=
EXTT10=
EXTT11=
EXTT12=
EXTT13=
EXTT14=
EXTT15=
EXTT16=
EXTT17=
PLAYORDER=
